<svg width="104" height="106" viewBox="0 0 104 106" fill="none" xmlns="http://www.w3.org/2000/svg">
    <path d="M98.3911 63.6904C100.052 62.4055 101.396 60.7576 102.321 58.8729C103.246 56.9882 103.726 54.9168 103.726 52.8176C103.726 50.7183 103.246 48.6469 102.321 46.7622C101.396 44.8775 100.052 43.2296 98.3911 41.9447C76.8869 25.3101 52.8744 12.1985 27.2525 3.10087L22.5678 1.43696C13.6145 -1.74026 4.15182 4.31295 2.9394 13.5577C-0.447592 39.6214 -0.447592 66.0137 2.9394 92.0774C4.159 101.322 13.6145 107.375 22.5678 104.198L27.2525 102.534C52.8744 93.4366 76.8869 80.3251 98.3911 63.6904Z" fill="white"/>
</svg>

