<svg width="134" height="70" viewBox="0 0 134 70" fill="none" xmlns="http://www.w3.org/2000/svg">
    <path d="M2 64.9644C8.49876 61.815 12.7435 70.5743 19.2423 67.425C25.7411 64.2757 21.4963 55.5164 27.995 52.3671C34.4938 49.2177 38.7386 57.977 45.2221 54.8351C51.7211 51.6857 47.4763 42.9264 53.9596 39.7845C60.4585 36.6351 64.7033 45.3944 71.1867 42.2526C77.6856 39.1032 73.4408 30.3439 79.9392 27.1947C86.4381 24.0453 90.6829 32.8046 97.1818 29.6552C103.68 26.5061 99.4354 17.7468 105.934 14.5974C112.433 11.448 116.678 20.2073 123.177 17.0579C129.675 13.9087 125.431 5.14945 131.929 2.00006" stroke="#CACACA" stroke-width="3" stroke-miterlimit="10" stroke-linecap="round"/>
</svg>
