<svg width="1440" height="15" viewBox="0 0 1440 15" fill="none" xmlns="http://www.w3.org/2000/svg">
  <path
          d="M0 1C9.00317 1 9.00317 14 18.0063 14C27.0095 14 27.0095 1 36.0127 1C45.0158 1 45.0158 14 53.9979 14C63.0013 14 63.0013 1 71.9831 1C80.9865 1 80.9865 14 89.9683 14C98.9717 14 98.9717 1 107.974 1C116.978 1 116.978 14 125.981 14C134.984 14 134.984 1 143.987 1C152.991 1 152.991 14 161.994 14C170.997 14 170.997 1 180 1C189.003 1 189.003 14 198.006 14C207.009 14 207.009 1 216.013 1C225.016 1 225.016 14 233.998 14C243.001 14 243.001 1 251.983 1C260.987 1 260.987 14 269.968 14C278.972 14 278.972 1 287.974 1C296.978 1 296.978 14 305.981 14C314.984 14 314.984 1 323.987 1C332.991 1 332.991 14 341.994 14C350.997 14 350.997 1 360 1C369.003 1 369.003 14 378.006 14C387.009 14 387.009 1 396.013 1C405.016 1 405.016 14 413.998 14C423.001 14 423.001 1 431.983 1C440.987 1 440.987 14 449.968 14C458.972 14 458.972 1 467.974 1C476.978 1 476.978 14 485.981 14C494.984 14 494.984 1 503.987 1C512.991 1 512.991 14 521.994 14C530.997 14 530.997 1 540 1C549.003 1 549.003 14 558.006 14C567.009 14 567.009 1 576.013 1C585.016 1 585.016 14 593.998 14C603.001 14 603.001 1 611.983 1C620.987 1 620.987 14 629.968 14C638.972 14 638.972 1 647.974 1C656.978 1 656.978 14 665.981 14C674.984 14 674.984 1 683.987 1C692.991 1 692.991 14 701.994 14C710.997 14 710.997 1 720 1C729.003 1 729.003 14 738.006 14C747.01 14 747.009 1 756.013 1C765.016 1 765.016 14 773.998 14C783.001 14 783.001 1 791.983 1C800.987 1 800.986 14 809.968 14C818.972 14 818.972 1 827.974 1C836.978 1 836.978 14 845.981 14C854.984 14 854.984 1 863.987 1C872.991 1 872.991 14 881.994 14C890.997 14 890.997 1 900 1C909.003 1 909.003 14 918.006 14C927.009 14 927.009 1 936.013 1C945.016 1 945.016 14 953.998 14C963.001 14 963.001 1 971.983 1C980.986 1 980.987 14 989.968 14C998.972 14 998.972 1 1007.97 1C1016.98 1 1016.98 14 1025.98 14C1034.98 14 1034.98 1 1043.99 1C1052.99 1 1052.99 14 1061.99 14C1071 14 1071 1 1080 1C1089 1 1089 14 1098.01 14C1107.01 14 1107.01 1 1116.01 1C1125.02 1 1125.02 14 1134 14C1143 14 1143 1 1151.98 1C1160.99 1 1160.99 14 1169.97 14C1178.97 14 1178.97 1 1187.97 1C1196.98 1 1196.98 14 1205.98 14C1214.98 14 1214.98 1 1223.99 1C1232.99 1 1232.99 14 1241.99 14C1251 14 1251 1 1260 1C1269 1 1269 14 1278.01 14C1287.01 14 1287.01 1 1296.01 1C1305.02 1 1305.02 14 1314 14C1323 14 1323 1 1331.98 1C1340.99 1 1340.99 14 1349.97 14C1358.97 14 1358.97 1 1367.97 1C1376.98 1 1376.98 14 1385.98 14C1394.98 14 1394.98 1 1403.99 1C1412.99 1 1412.99 14 1421.99 14C1431 14 1431 1 1440 1"
          stroke="#B8B8B8" stroke-miterlimit="10" stroke-linecap="round"/>
</svg>