<svg width="14" height="19" viewBox="0 0 14 19" fill="none" xmlns="http://www.w3.org/2000/svg">
    <path d="M9.3197 0.500013C9.31971 0.401903 9.29084 0.305961 9.23671 0.224135C9.18258 0.142309 9.10558 0.0782167 9.01528 0.0398397C8.92499 0.00146278 8.8254 -0.00950245 8.72892 0.00830982C8.63245 0.0261221 8.54334 0.0719248 8.4727 0.140013L6.6947 1.85001C4.04789 4.39518 1.81136 7.33505 0.0647025 10.565C0.021725 10.6411 -0.000579155 10.727 1.14307e-05 10.8144C0.000602017 10.9017 0.0240666 10.9874 0.0680685 11.0629C0.11207 11.1383 0.175074 11.201 0.250804 11.2445C0.326535 11.288 0.41235 11.311 0.499702 11.311H4.8097V18.5C4.80958 18.597 4.83767 18.6919 4.89056 18.7733C4.94344 18.8546 5.01883 18.9187 5.10755 18.958C5.19626 18.9972 5.29447 19.0097 5.3902 18.9941C5.48593 18.9785 5.57505 18.9354 5.6467 18.87L6.4417 18.145C9.22643 15.6083 11.5897 12.6446 13.4427 9.36501L13.9347 8.49501C13.9779 8.41894 14.0004 8.33285 14 8.24535C13.9995 8.15786 13.9761 8.07201 13.932 7.9964C13.888 7.92079 13.8249 7.85806 13.749 7.81447C13.6732 7.77088 13.5872 7.74797 13.4997 7.74801H9.3197V0.500013Z" fill="#FFEC3E"/>
</svg>
